PathFileType	4	(X/Y/Z)	/Users/mathieubourgeois/Desktop/Analyse/Traitement/Sujet_07/Data/Transformed_Sujet_07_velo_80.trc
DataRate	CameraRate	NumFrames	NumMarkers	Units	OrigDataRate	OrigDataStartFrame	OrigNumFrames
120.000000	120.000000	5	36	mm	120.000000	467	1868
Frame#	Time	RFHD			LFHD			RBHD			LBHD			C7			CLAV			RSHO			LSHO			STRN			T10			RBWT			LBWT			RFWT			LFWT			RKNI			LKNI			RKNE			LKNE			LANI			RANI			LANE			RANE			LTOE			RTOE			LHEE			RHEE			RHUM			LHUM			RRAD			LRAD			RWRA			RWRB			LWRA			LWRB			LCAR			RCAR			
		X1	Y1	Z1	X2	Y2	Z2	X3	Y3	Z3	X4	Y4	Z4	X5	Y5	Z5	X6	Y6	Z6	X7	Y7	Z7	X8	Y8	Z8	X9	Y9	Z9	X10	Y10	Z10	X11	Y11	Z11	X12	Y12	Z12	X13	Y13	Z13	X14	Y14	Z14	X15	Y15	Z15	X16	Y16	Z16	X17	Y17	Z17	X18	Y18	Z18	X19	Y19	Z19	X20	Y20	Z20	X21	Y21	Z21	X22	Y22	Z22	X23	Y23	Z23	X24	Y24	Z24	X25	Y25	Z25	X26	Y26	Z26	X27	Y27	Z27	X28	Y28	Z28	X29	Y29	Z29	X30	Y30	Z30	X31	Y31	Z31	X32	Y32	Z32	X33	Y33	Z33	X34	Y34	Z34	X35	Y35	Z35	X36	Y36	Z36	

468	3.891666666666667	264.0892333984375	1361.1806640625	142.9676208496093	278.2095642089844	1337.942993164062	12.42666244506831	211.2685394287109	1503.300415039062	128.7687988281249	222.5516967773438	1493.39453125	-15.72012901306159	63.76736450195312	1491.105590820312	39.76258850097648	44.03737258911132	1355.841674804688	47.67080688476555	79.85247039794919	1432.230712890625	188.5070495605468	99.68997955322267	1457.651489257812	-84.44905853271491	-118.4131851196289	1285.1640625	33.989891052246	-186.2060394287109	1514.941650390625	36.92817306518543	-432.8489074707031	1302.635131835938	117.753463745117	-446.9896545410156	1306.256103515625	4.496132373809679	-275.6433715820312	1209.876098632812	146.3254394531249	-299.011962890625	1226.601440429688	-65.58478546142589	-175.9432067871094	688.1893310546875	112.6716690063476	-14.66421318054199	922.9070434570312	-45.39342498779303	-180.546371459961	751.9171752929688	213.1955261230468	-11.00528240203855	968.5987548828125	-153.0700378417969	-157.7258911132812	572.1820678710938	-39.55171585083013	-305.1607055664062	327.671142578125	121.390022277832	-177.4514617919922	560.2058715820312	-127.3520812988282	-339.871337890625	325.2430725097656	204.8625335693359	17.26646232604982	482.4800720214844	-92.67164611816409	-194.762435913086	160.6776428222656	183.5678253173828	-238.4271087646484	555.228759765625	-87.99454498291021	-393.319091796875	331.3470764160156	158.476104736328	78.19248962402341	1098.4453125	236.6416625976562	99.33992767333986	1123.20068359375	-156.0619049072266	123.2943954467773	1125.02392578125	281.2369689941406	162.5050201416016	1138.941162109375	-173.073959350586	322.1005859374999	935.89501953125	250.6871643066406	281.8274536132812	900.971923828125	305.5279235839844	317.01220703125	930.6493530273438	-105.1710968017578	277.7264709472656	886.9160766601562	-155.5794525146485	372.5555419921875	914.0388793945312	-193.5307159423828	371.1890258789062	925.8825073242188	341.1495971679688	
469	3.9	263.4237976074219	1361.175048828125	143.6914062499999	277.6498107910156	1337.950317382812	13.16276454925532	210.4419250488281	1503.23046875	129.4950103759765	221.769775390625	1493.36083984375	-15.02054977416999	63.04498672485351	1490.89208984375	40.3950767517089	43.42398452758788	1355.624755859375	48.31246185302727	79.05944061279294	1431.98291015625	189.0041503906249	99.20911407470705	1457.449462890625	-83.78814697265632	-119.1189498901367	1284.94091796875	34.45893859863272	-186.8731689453125	1514.843139648438	36.86418151855457	-433.966064453125	1302.621459960938	117.1034240722655	-447.701904296875	1305.932739257812	3.901279449462756	-276.6439819335938	1210.275390625	146.4057159423827	-299.486328125	1226.002685546875	-65.6265106201173	-168.6466827392578	692.5753173828125	112.0166549682617	-16.38838577270507	916.7356567382812	-44.92436981201178	-174.9294586181641	756.3363647460938	213.4290008544921	-13.06321811676023	962.8981323242188	-152.3347320556641	-149.7456665039062	561.7922973632812	-39.6345939636231	-311.889892578125	336.6517333984375	120.2755279541015	-169.0470886230468	549.2783813476562	-127.3927917480469	-346.7102355957031	335.27294921875	203.7107238769531	27.91218948364259	473.9099426269531	-91.51918792724612	-205.1065063476563	167.7726898193359	183.2550964355468	-230.0455780029297	542.8660888671875	-87.93523406982428	-399.9649047851562	342.5533752441406	157.1638183593749	77.86398315429685	1098.184326171875	236.7858734130859	99.17369842529298	1123.082885742188	-156.0155639648438	122.8391418457031	1124.77734375	281.4479370117187	162.3412780761719	1138.908325195312	-172.9072570800782	321.9634704589843	935.9251098632812	250.85009765625	281.6993713378906	900.9498901367188	305.65869140625	316.964111328125	930.69189453125	-105.0216064453125	277.7132568359375	886.9618530273438	-155.4994506835938	372.5486450195312	914.1030883789062	-193.3902282714844	371.0806884765624	925.8826904296875	341.318603515625	
470	3.908333333333333	262.6514892578125	1361.136474609375	144.5624542236328	276.9923706054688	1337.933471679688	13.97797393798823	209.4701232910156	1503.124267578125	130.2752227783203	220.9785003662109	1493.2744140625	-14.21833801269538	62.26512145996093	1490.6865234375	41.05764007568351	42.75278091430663	1355.439331054688	48.94134140014641	78.12776184082028	1431.679809570312	189.6112518310546	98.67369842529298	1457.243530273438	-83.12237548828132	-119.6974639892578	1284.708984375	34.85005569457999	-187.5487823486328	1514.723999023438	36.85146713256825	-435.0745849609375	1302.554077148438	116.3803939819335	-448.3890380859375	1305.483642578125	3.155702352523669	-277.6161499023438	1210.6455078125	146.4866485595702	-299.89794921875	1225.289916992188	-65.67062377929699	-163.0722351074219	697.3890991210938	112.2100067138671	-18.58192634582519	909.636474609375	-44.32324600219732	-168.9087524414063	761.08935546875	213.8101196289062	-15.39584445953367	956.225341796875	-151.4754028320313	-142.5057525634766	550.6935424804688	-39.62489700317388	-317.9044799804688	346.2677612304688	119.0903320312499	-160.9779357910156	537.9036254882812	-127.4784469604493	-352.8311157226562	345.9608764648438	202.4358367919921	36.09163665771486	465.6855163574219	-91.85552215576175	-214.8735809326172	175.5323028564453	183.0766296386718	-221.8294067382812	530.2720336914062	-88.42845153808599	-405.8609008789062	354.4598083496094	155.6576843261718	77.47293853759763	1097.892456054688	236.9166412353515	98.95478820800783	1122.960815429688	-155.9236755371094	122.3443450927734	1124.480102539062	281.6433715820312	162.1532440185547	1138.872680664062	-172.6740112304688	321.5348205566406	935.9435424804688	250.983657836914	281.5491638183593	900.9246215820312	305.8026733398438	316.9020385742188	930.750244140625	-104.902328491211	277.669921875	887.0078125	-155.3927307128907	372.5104064941406	914.1875	-193.2631072998047	370.9525756835937	925.8936767578125	341.4473571777344	
471	3.916666666666667	261.7989196777344	1361.104614257812	145.4667663574218	276.3380432128906	1337.892700195312	14.8869714736938	208.480484008789	1502.988037109375	131.1608581542968	220.1583404541016	1493.17724609375	-13.34777832031256	61.41947174072265	1490.529296875	41.77391815185538	41.98165893554687	1355.204467773438	49.58636856079094	77.19999694824216	1431.442749023438	190.7661895751952	98.08688354492189	1457.058715820312	-82.3954162597657	-120.5158004760742	1284.469360351562	35.40766525268545	-188.3423309326172	1514.578125	36.8317413330077	-436.1603393554688	1302.380737304688	115.5932617187499	-449.0022583007812	1304.924194335938	2.381890535354479	-278.4853210449219	1210.960815429688	146.5761871337889	-300.2110290527344	1224.423950195312	-65.70590972900402	-157.1015625	702.515380859375	112.5717391967773	-21.16176033020019	901.6635131835938	-43.69038772583013	-162.652084350586	766.1122436523438	214.287872314453	-17.96767044067381	948.641357421875	-150.2129821777344	-135.5260772705078	539.0836181640625	-39.73468780517583	-322.9004516601562	356.4688110351562	117.9032135009765	-153.4515991210937	525.8990478515625	-127.5242538452149	-358.1908569335938	357.2114868164062	201.1135864257812	44.41674804687501	456.2296752929688	-91.53404235839847	-223.7347259521485	183.7943878173828	183.1167602539062	-214.3505249023438	517.1510009765625	-88.65749359130865	-410.8236694335938	366.8900451660156	153.9644012451171	77.04062652587888	1097.574584960938	237.0894317626953	98.69073486328126	1122.869384765625	-155.7205963134766	121.825698852539	1124.193725585938	281.8765869140624	161.8908996582032	1138.82568359375	-172.3599090576172	321.3366699218749	935.9711303710938	251.0936126708984	281.3898925781249	900.89208984375	305.9082336425781	316.7711486816406	930.8087768554688	-104.7699432373047	277.5884399414062	887.0664672851562	-155.2526550292969	372.4389343261719	914.2918090820312	-193.1461029052734	370.8145751953124	925.9314575195312	341.5621948242188	
472	3.925	260.8621520996094	1361.172607421875	146.3382263183593	275.6055297851562	1337.834106445312	15.81466865539546	207.4921569824218	1502.813598632812	132.0931243896484	219.3327484130859	1493.105102539062	-12.38218212127692	60.49451446533202	1490.342651367188	42.5455894470214	41.1489028930664	1354.96142578125	50.27062225341789	76.14687347412107	1431.106811523438	191.5882568359374	97.45381164550783	1456.880859375	-81.57657623291023	-121.1556243896484	1284.322387695312	35.90547561645499	-189.1466979980469	1514.377563476562	36.79351806640614	-437.1940307617188	1302.135498046875	114.8371963500975	-449.5474548339844	1304.244750976562	1.5700987577437	-279.3298034667969	1211.212768554688	146.6499481201171	-300.3888549804688	1223.51806640625	-65.74401092529308	-150.8772583007812	707.879150390625	113.1564025878906	-24.21638870239257	893.2546997070312	-42.73831176757818	-156.1338043212891	771.4749755859375	215.0230560302734	-21.3196449279785	940.0662841796875	-149.8681945800782	-129.0642395019531	527.0293579101562	-39.9551506042481	-327.0186767578125	367.2126770019531	116.8105316162109	-146.576904296875	513.460693359375	-127.6304779052735	-362.6890258789062	368.9584350585938	199.8583221435546	52.54614639282228	445.52880859375	-90.39122009277347	-232.103988647461	192.8734741210938	182.62158203125	-207.5317230224609	503.6610717773438	-89.00002288818365	-414.90625	379.9044494628906	152.4163055419921	76.5810623168945	1097.247192382812	237.2645263671874	98.37960052490236	1122.782470703125	-155.3980560302735	121.2790298461914	1123.848510742188	282.1178894042968	161.5362701416016	1138.818725585938	-172.0676422119141	321.1376953124999	936.0288696289062	251.1780090332031	281.2443542480468	900.8956298828125	305.9919128417969	316.65966796875	930.86083984375	-104.6804504394531	277.4722900390625	887.1393432617188	-155.1715545654297	372.3032836914062	914.4232177734375	-193.0929565429688	370.6525268554687	925.980712890625	341.6513061523438	
